<?xml version="1.0" encoding="UTF-8" standalone="no"?>
<!DOCTYPE svg PUBLIC "-//W3C//DTD SVG 1.1//EN"
 "http://www.w3.org/Graphics/SVG/1.1/DTD/svg11.dtd">
<!-- Generated by graphviz version 2.40.1 (20161225.0304)
 -->
<!-- Title: G Pages: 1 -->
<svg width="6082pt" height="233pt"
 viewBox="0.00 0.00 6082.00 233.48" xmlns="http://www.w3.org/2000/svg" xmlns:xlink="http://www.w3.org/1999/xlink">
<g id="graph0" class="graph" transform="scale(1 1) rotate(0) translate(4 229.4802)">
<title>G</title>
<polygon fill="#ffffff" stroke="transparent" points="-4,4 -4,-229.4802 6078,-229.4802 6078,4 -4,4"/>
<g id="clust1" class="cluster">
<title>cluster_G</title>
<path fill="#808080" fill-opacity="0.094118" stroke="#000000" d="M20,-8C20,-8 6054,-8 6054,-8 6060,-8 6066,-14 6066,-20 6066,-20 6066,-205.4802 6066,-205.4802 6066,-211.4802 6060,-217.4802 6054,-217.4802 6054,-217.4802 20,-217.4802 20,-217.4802 14,-217.4802 8,-211.4802 8,-205.4802 8,-205.4802 8,-20 8,-20 8,-14 14,-8 20,-8"/>
</g>
<g id="clust2" class="cluster">
<title>cluster_mnist_training_iree</title>
<path fill="#808080" fill-opacity="0.094118" stroke="#000000" d="M28,-16C28,-16 3033,-16 3033,-16 3039,-16 3045,-22 3045,-28 3045,-28 3045,-96.7401 3045,-96.7401 3045,-102.7401 3039,-108.7401 3033,-108.7401 3033,-108.7401 28,-108.7401 28,-108.7401 22,-108.7401 16,-102.7401 16,-96.7401 16,-96.7401 16,-28 16,-28 16,-22 22,-16 28,-16"/>
<text text-anchor="middle" x="1530.5" y="-93.5401" font-family="Times,serif" font-size="14.00" fill="#000000">mnist_training_iree</text>
</g>
<g id="clust3" class="cluster">
<title>cluster_mnist_training_iree__MLP_Layer1</title>
<path fill="#808080" fill-opacity="0.094118" stroke="#000000" d="M3065,-16C3065,-16 4034,-16 4034,-16 4040,-16 4046,-22 4046,-28 4046,-28 4046,-96.7401 4046,-96.7401 4046,-102.7401 4040,-108.7401 4034,-108.7401 4034,-108.7401 3065,-108.7401 3065,-108.7401 3059,-108.7401 3053,-102.7401 3053,-96.7401 3053,-96.7401 3053,-28 3053,-28 3053,-22 3059,-16 3065,-16"/>
<text text-anchor="middle" x="3549.5" y="-93.5401" font-family="Times,serif" font-size="14.00" fill="#000000">mnist_training_iree.MLP_Layer1</text>
</g>
<g id="clust4" class="cluster">
<title>cluster_mnist_training_iree__MLP_Layer2</title>
<path fill="#808080" fill-opacity="0.094118" stroke="#000000" d="M4066,-16C4066,-16 5035,-16 5035,-16 5041,-16 5047,-22 5047,-28 5047,-28 5047,-96.7401 5047,-96.7401 5047,-102.7401 5041,-108.7401 5035,-108.7401 5035,-108.7401 4066,-108.7401 4066,-108.7401 4060,-108.7401 4054,-102.7401 4054,-96.7401 4054,-96.7401 4054,-28 4054,-28 4054,-22 4060,-16 4066,-16"/>
<text text-anchor="middle" x="4550.5" y="-93.5401" font-family="Times,serif" font-size="14.00" fill="#000000">mnist_training_iree.MLP_Layer2</text>
</g>
<g id="clust5" class="cluster">
<title>cluster_mnist_training_iree__MLP_Layer3</title>
<path fill="#808080" fill-opacity="0.094118" stroke="#000000" d="M5067,-16C5067,-16 6046,-16 6046,-16 6052,-16 6058,-22 6058,-28 6058,-28 6058,-96.7401 6058,-96.7401 6058,-102.7401 6052,-108.7401 6046,-108.7401 6046,-108.7401 5067,-108.7401 5067,-108.7401 5061,-108.7401 5055,-102.7401 5055,-96.7401 5055,-96.7401 5055,-28 5055,-28 5055,-22 5061,-16 5067,-16"/>
<text text-anchor="middle" x="5556.5" y="-93.5401" font-family="Times,serif" font-size="14.00" fill="#000000">mnist_training_iree.MLP_Layer3</text>
</g>
<g id="clust6" class="cluster">
<title>cluster_mnist_training_iree__Net</title>
<path fill="#808080" fill-opacity="0.094118" stroke="#000000" d="M2803,-116.7401C2803,-116.7401 3792,-116.7401 3792,-116.7401 3798,-116.7401 3804,-122.7401 3804,-128.7401 3804,-128.7401 3804,-197.4802 3804,-197.4802 3804,-203.4802 3798,-209.4802 3792,-209.4802 3792,-209.4802 2803,-209.4802 2803,-209.4802 2797,-209.4802 2791,-203.4802 2791,-197.4802 2791,-197.4802 2791,-128.7401 2791,-128.7401 2791,-122.7401 2797,-116.7401 2803,-116.7401"/>
<text text-anchor="middle" x="3297.5" y="-194.2802" font-family="Times,serif" font-size="14.00" fill="#000000">mnist_training_iree.Net</text>
</g>
<!-- mnist_training_iree -->
<g id="node1" class="node">
<title>mnist_training_iree</title>
<ellipse fill="#ffffff" fill-opacity="0.698039" stroke="#000000" cx="523" cy="-151.6102" rx="79.8859" ry="18"/>
<text text-anchor="middle" x="523" y="-147.9102" font-family="Times,serif" font-size="14.00" fill="#000000">mnist_training_iree</text>
</g>
<!-- mnist_training_iree__train -->
<g id="node6" class="node">
<title>mnist_training_iree__train</title>
<ellipse fill="#fecccc" fill-opacity="0.698039" stroke="#000000" cx="776" cy="-50.8701" rx="244.818" ry="26.7407"/>
<text text-anchor="middle" x="776" y="-54.6701" font-family="Times,serif" font-size="14.00" fill="#000000">train</text>
<text text-anchor="middle" x="776" y="-39.6701" font-family="Times,serif" font-size="14.00" fill="#000000">(experimental/end2end_pytorch/mnist_training_iree.py:139)</text>
</g>
<!-- mnist_training_iree&#45;&gt;mnist_training_iree__train -->
<g id="edge1" class="edge">
<title>mnist_training_iree&#45;&gt;mnist_training_iree__train</title>
<path fill="none" stroke="#000000" d="M562.5313,-135.8695C599.5095,-121.1455 655.7044,-98.7696 701.1566,-80.6714"/>
<polygon fill="#000000" stroke="#000000" points="702.686,-83.8297 710.6818,-76.8786 700.0964,-77.3263 702.686,-83.8297"/>
</g>
<!-- mnist_training_iree__validate -->
<g id="node7" class="node">
<title>mnist_training_iree__validate</title>
<ellipse fill="#fecccc" fill-opacity="0.698039" stroke="#000000" cx="269" cy="-50.8701" rx="244.818" ry="26.7407"/>
<text text-anchor="middle" x="269" y="-54.6701" font-family="Times,serif" font-size="14.00" fill="#000000">validate</text>
<text text-anchor="middle" x="269" y="-39.6701" font-family="Times,serif" font-size="14.00" fill="#000000">(experimental/end2end_pytorch/mnist_training_iree.py:173)</text>
</g>
<!-- mnist_training_iree&#45;&gt;mnist_training_iree__validate -->
<g id="edge2" class="edge">
<title>mnist_training_iree&#45;&gt;mnist_training_iree__validate</title>
<path fill="none" stroke="#000000" d="M483.3125,-135.8695C446.1881,-121.1455 389.7711,-98.7696 344.1392,-80.6714"/>
<polygon fill="#000000" stroke="#000000" points="345.1624,-77.312 334.5764,-76.8786 342.5816,-83.8189 345.1624,-77.312"/>
</g>
<!-- mnist_training_iree__MLP_Layer1 -->
<g id="node2" class="node">
<title>mnist_training_iree__MLP_Layer1</title>
<ellipse fill="#fecccc" fill-opacity="0.698039" stroke="#000000" cx="2300" cy="-50.8701" rx="239.9186" ry="26.7407"/>
<text text-anchor="middle" x="2300" y="-54.6701" font-family="Times,serif" font-size="14.00" fill="#000000">MLP_Layer1</text>
<text text-anchor="middle" x="2300" y="-39.6701" font-family="Times,serif" font-size="14.00" fill="#000000">(experimental/end2end_pytorch/mnist_training_iree.py:42)</text>
</g>
<!-- mnist_training_iree__MLP_Layer2 -->
<g id="node3" class="node">
<title>mnist_training_iree__MLP_Layer2</title>
<ellipse fill="#fecccc" fill-opacity="0.698039" stroke="#000000" cx="1803" cy="-50.8701" rx="239.9186" ry="26.7407"/>
<text text-anchor="middle" x="1803" y="-54.6701" font-family="Times,serif" font-size="14.00" fill="#000000">MLP_Layer2</text>
<text text-anchor="middle" x="1803" y="-39.6701" font-family="Times,serif" font-size="14.00" fill="#000000">(experimental/end2end_pytorch/mnist_training_iree.py:65)</text>
</g>
<!-- mnist_training_iree__MLP_Layer3 -->
<g id="node4" class="node">
<title>mnist_training_iree__MLP_Layer3</title>
<ellipse fill="#fecccc" fill-opacity="0.698039" stroke="#000000" cx="2797" cy="-50.8701" rx="239.9186" ry="26.7407"/>
<text text-anchor="middle" x="2797" y="-54.6701" font-family="Times,serif" font-size="14.00" fill="#000000">MLP_Layer3</text>
<text text-anchor="middle" x="2797" y="-39.6701" font-family="Times,serif" font-size="14.00" fill="#000000">(experimental/end2end_pytorch/mnist_training_iree.py:88)</text>
</g>
<!-- mnist_training_iree__Net -->
<g id="node5" class="node">
<title>mnist_training_iree__Net</title>
<ellipse fill="#fecccc" fill-opacity="0.698039" stroke="#000000" cx="1301" cy="-50.8701" rx="244.818" ry="26.7407"/>
<text text-anchor="middle" x="1301" y="-54.6701" font-family="Times,serif" font-size="14.00" fill="#000000">Net</text>
<text text-anchor="middle" x="1301" y="-39.6701" font-family="Times,serif" font-size="14.00" fill="#000000">(experimental/end2end_pytorch/mnist_training_iree.py:111)</text>
</g>
<!-- mnist_training_iree__train&#45;&gt;mnist_training_iree__train -->
<g id="edge15" class="edge">
<title>mnist_training_iree__train&#45;&gt;mnist_training_iree__train</title>
<path fill="none" stroke="#000000" d="M952.4613,-69.5113C1001.2975,-68.6316 1038.6589,-62.4179 1038.6589,-50.8701 1038.6589,-40.1342 1006.3668,-34.0086 962.5835,-32.4935"/>
<polygon fill="#000000" stroke="#000000" points="962.5494,-28.9915 952.4613,-32.2288 962.3664,-35.9891 962.5494,-28.9915"/>
</g>
<!-- mnist_training_iree__MLP_Layer1____init__ -->
<g id="node8" class="node">
<title>mnist_training_iree__MLP_Layer1____init__</title>
<ellipse fill="#ff9999" fill-opacity="0.698039" stroke="#000000" cx="3798" cy="-50.8701" rx="239.9186" ry="26.7407"/>
<text text-anchor="middle" x="3798" y="-54.6701" font-family="Times,serif" font-size="14.00" fill="#000000">__init__</text>
<text text-anchor="middle" x="3798" y="-39.6701" font-family="Times,serif" font-size="14.00" fill="#000000">(experimental/end2end_pytorch/mnist_training_iree.py:43)</text>
</g>
<!-- mnist_training_iree__MLP_Layer1__forward -->
<g id="node9" class="node">
<title>mnist_training_iree__MLP_Layer1__forward</title>
<ellipse fill="#ff9999" fill-opacity="0.698039" stroke="#000000" cx="3301" cy="-50.8701" rx="239.9186" ry="26.7407"/>
<text text-anchor="middle" x="3301" y="-54.6701" font-family="Times,serif" font-size="14.00" fill="#000000">forward</text>
<text text-anchor="middle" x="3301" y="-39.6701" font-family="Times,serif" font-size="14.00" fill="#000000">(experimental/end2end_pytorch/mnist_training_iree.py:59)</text>
</g>
<!-- mnist_training_iree__MLP_Layer2____init__ -->
<g id="node10" class="node">
<title>mnist_training_iree__MLP_Layer2____init__</title>
<ellipse fill="#ff9999" fill-opacity="0.698039" stroke="#000000" cx="4799" cy="-50.8701" rx="239.9186" ry="26.7407"/>
<text text-anchor="middle" x="4799" y="-54.6701" font-family="Times,serif" font-size="14.00" fill="#000000">__init__</text>
<text text-anchor="middle" x="4799" y="-39.6701" font-family="Times,serif" font-size="14.00" fill="#000000">(experimental/end2end_pytorch/mnist_training_iree.py:66)</text>
</g>
<!-- mnist_training_iree__MLP_Layer2__forward -->
<g id="node11" class="node">
<title>mnist_training_iree__MLP_Layer2__forward</title>
<ellipse fill="#ff9999" fill-opacity="0.698039" stroke="#000000" cx="4302" cy="-50.8701" rx="239.9186" ry="26.7407"/>
<text text-anchor="middle" x="4302" y="-54.6701" font-family="Times,serif" font-size="14.00" fill="#000000">forward</text>
<text text-anchor="middle" x="4302" y="-39.6701" font-family="Times,serif" font-size="14.00" fill="#000000">(experimental/end2end_pytorch/mnist_training_iree.py:82)</text>
</g>
<!-- mnist_training_iree__MLP_Layer3____init__ -->
<g id="node12" class="node">
<title>mnist_training_iree__MLP_Layer3____init__</title>
<ellipse fill="#ff9999" fill-opacity="0.698039" stroke="#000000" cx="5810" cy="-50.8701" rx="239.9186" ry="26.7407"/>
<text text-anchor="middle" x="5810" y="-54.6701" font-family="Times,serif" font-size="14.00" fill="#000000">__init__</text>
<text text-anchor="middle" x="5810" y="-39.6701" font-family="Times,serif" font-size="14.00" fill="#000000">(experimental/end2end_pytorch/mnist_training_iree.py:89)</text>
</g>
<!-- mnist_training_iree__MLP_Layer3__forward -->
<g id="node13" class="node">
<title>mnist_training_iree__MLP_Layer3__forward</title>
<ellipse fill="#ff9999" fill-opacity="0.698039" stroke="#000000" cx="5308" cy="-50.8701" rx="244.818" ry="26.7407"/>
<text text-anchor="middle" x="5308" y="-54.6701" font-family="Times,serif" font-size="14.00" fill="#000000">forward</text>
<text text-anchor="middle" x="5308" y="-39.6701" font-family="Times,serif" font-size="14.00" fill="#000000">(experimental/end2end_pytorch/mnist_training_iree.py:105)</text>
</g>
<!-- mnist_training_iree__Net____init__ -->
<g id="node14" class="node">
<title>mnist_training_iree__Net____init__</title>
<ellipse fill="#ff9999" fill-opacity="0.698039" stroke="#000000" cx="3551" cy="-151.6102" rx="244.818" ry="26.7407"/>
<text text-anchor="middle" x="3551" y="-155.4102" font-family="Times,serif" font-size="14.00" fill="#000000">__init__</text>
<text text-anchor="middle" x="3551" y="-140.4102" font-family="Times,serif" font-size="14.00" fill="#000000">(experimental/end2end_pytorch/mnist_training_iree.py:112)</text>
</g>
<!-- mnist_training_iree__Net____init__&#45;&gt;mnist_training_iree__MLP_Layer1 -->
<g id="edge5" class="edge">
<title>mnist_training_iree__Net____init__&#45;&gt;mnist_training_iree__MLP_Layer1</title>
<path fill="none" stroke="#000000" d="M3413.1339,-129.395C3375.8653,-124.2694 3335.4748,-119.5113 3298,-116.7401 3214.8889,-110.5941 2630.7392,-118.713 2548,-108.7401 2497.3938,-102.6403 2442.07,-90.2976 2396.5417,-78.572"/>
<polygon fill="#000000" stroke="#000000" points="2397.2431,-75.138 2386.6836,-76.0036 2395.4781,-81.9119 2397.2431,-75.138"/>
</g>
<!-- mnist_training_iree__Net____init__&#45;&gt;mnist_training_iree__MLP_Layer2 -->
<g id="edge8" class="edge">
<title>mnist_training_iree__Net____init__&#45;&gt;mnist_training_iree__MLP_Layer2</title>
<path fill="none" stroke="#000000" d="M3413.4714,-129.3334C3376.1114,-124.1907 3335.5912,-119.4396 3298,-116.7401 3159.7975,-106.8155 2188.5977,-125.0287 2051,-108.7401 2000.2787,-102.7358 1944.8323,-90.366 1899.2542,-78.5984"/>
<polygon fill="#000000" stroke="#000000" points="1899.9464,-75.1618 1889.3865,-76.0205 1898.1771,-81.9345 1899.9464,-75.1618"/>
</g>
<!-- mnist_training_iree__Net____init__&#45;&gt;mnist_training_iree__MLP_Layer3 -->
<g id="edge3" class="edge">
<title>mnist_training_iree__Net____init__&#45;&gt;mnist_training_iree__MLP_Layer3</title>
<path fill="none" stroke="#000000" d="M3410.4475,-129.5718C3373.9185,-124.5769 3334.5594,-119.8382 3298,-116.7401 3187.6717,-107.3906 3158.8049,-122.9755 3049,-108.7401 2998.0917,-102.1402 2942.3788,-89.8887 2896.3128,-78.3519"/>
<polygon fill="#000000" stroke="#000000" points="2896.8871,-74.8869 2886.334,-75.8264 2895.1696,-81.673 2896.8871,-74.8869"/>
</g>
<!-- mnist_training_iree__Net____init__&#45;&gt;mnist_training_iree__MLP_Layer1____init__ -->
<g id="edge6" class="edge">
<title>mnist_training_iree__Net____init__&#45;&gt;mnist_training_iree__MLP_Layer1____init__</title>
<path fill="none" stroke="#000000" d="M3614.9299,-125.5361C3648.5084,-111.8409 3689.8127,-94.9947 3724.6847,-80.772"/>
<polygon fill="#000000" stroke="#000000" points="3726.4004,-83.8523 3734.3381,-76.8349 3723.7568,-77.3706 3726.4004,-83.8523"/>
</g>
<!-- mnist_training_iree__Net____init__&#45;&gt;mnist_training_iree__MLP_Layer2____init__ -->
<g id="edge4" class="edge">
<title>mnist_training_iree__Net____init__&#45;&gt;mnist_training_iree__MLP_Layer2____init__</title>
<path fill="none" stroke="#000000" d="M3791.2096,-146.4601C4039.4124,-140.2149 4409.8785,-128.0582 4551,-108.7401 4600.6853,-101.9387 4655.0283,-89.8036 4700.1475,-78.3964"/>
<polygon fill="#000000" stroke="#000000" points="4701.1019,-81.7651 4709.9249,-75.8995 4699.3698,-74.9827 4701.1019,-81.7651"/>
</g>
<!-- mnist_training_iree__Net____init__&#45;&gt;mnist_training_iree__MLP_Layer3____init__ -->
<g id="edge7" class="edge">
<title>mnist_training_iree__Net____init__&#45;&gt;mnist_training_iree__MLP_Layer3____init__</title>
<path fill="none" stroke="#000000" d="M3795.0216,-149.2529C4292.4756,-144.0324 5391.3614,-130.2302 5562,-108.7401 5612.3687,-102.3967 5667.4466,-90.1013 5712.8758,-78.4695"/>
<polygon fill="#000000" stroke="#000000" points="5713.9109,-81.817 5722.7145,-75.9223 5712.1564,-75.0404 5713.9109,-81.817"/>
</g>
<!-- mnist_training_iree__Net__forward -->
<g id="node15" class="node">
<title>mnist_training_iree__Net__forward</title>
<ellipse fill="#ff9999" fill-opacity="0.698039" stroke="#000000" cx="3044" cy="-151.6102" rx="244.818" ry="26.7407"/>
<text text-anchor="middle" x="3044" y="-155.4102" font-family="Times,serif" font-size="14.00" fill="#000000">forward</text>
<text text-anchor="middle" x="3044" y="-140.4102" font-family="Times,serif" font-size="14.00" fill="#000000">(experimental/end2end_pytorch/mnist_training_iree.py:124)</text>
</g>
<!-- mnist_training_iree__Net__forward&#45;&gt;mnist_training_iree__MLP_Layer1 -->
<g id="edge11" class="edge">
<title>mnist_training_iree__Net__forward&#45;&gt;mnist_training_iree__MLP_Layer1</title>
<path fill="none" stroke="#000000" d="M2905.0274,-129.4754C2869.2598,-124.5139 2830.771,-119.8153 2795,-116.7401 2685.5683,-107.3326 2656.897,-123.0669 2548,-108.7401 2497.9735,-102.1585 2443.2631,-89.9439 2397.9874,-78.4268"/>
<polygon fill="#000000" stroke="#000000" points="2398.7356,-75.0054 2388.179,-75.9054 2396.9927,-81.785 2398.7356,-75.0054"/>
</g>
<!-- mnist_training_iree__Net__forward&#45;&gt;mnist_training_iree__MLP_Layer2 -->
<g id="edge14" class="edge">
<title>mnist_training_iree__Net__forward&#45;&gt;mnist_training_iree__MLP_Layer2</title>
<path fill="none" stroke="#000000" d="M2907.3498,-129.2572C2870.9416,-124.1835 2831.5639,-119.4855 2795,-116.7401 2712.5606,-110.5502 2133.0769,-118.6368 2051,-108.7401 2000.394,-102.6382 1945.0703,-90.2952 1899.5419,-78.5701"/>
<polygon fill="#000000" stroke="#000000" points="1900.2433,-75.136 1889.6839,-76.0018 1898.4784,-81.9099 1900.2433,-75.136"/>
</g>
<!-- mnist_training_iree__Net__forward&#45;&gt;mnist_training_iree__MLP_Layer3 -->
<g id="edge9" class="edge">
<title>mnist_training_iree__Net__forward&#45;&gt;mnist_training_iree__MLP_Layer3</title>
<path fill="none" stroke="#000000" d="M2980.0701,-125.5361C2946.4916,-111.8409 2905.1873,-94.9947 2870.3153,-80.772"/>
<polygon fill="#000000" stroke="#000000" points="2871.2432,-77.3706 2860.6619,-76.8349 2868.5996,-83.8523 2871.2432,-77.3706"/>
</g>
<!-- mnist_training_iree__Net__forward&#45;&gt;mnist_training_iree__MLP_Layer1____init__ -->
<g id="edge12" class="edge">
<title>mnist_training_iree__Net__forward&#45;&gt;mnist_training_iree__MLP_Layer1____init__</title>
<path fill="none" stroke="#000000" d="M3184.5515,-129.559C3221.0805,-124.5643 3260.4399,-119.829 3297,-116.7401 3409.1013,-107.269 3438.4549,-123.3717 3550,-108.7401 3600.0291,-102.1777 3654.7397,-89.9652 3700.0149,-78.4445"/>
<polygon fill="#000000" stroke="#000000" points="3701.01,-81.8026 3709.8232,-75.9222 3699.2666,-75.0231 3701.01,-81.8026"/>
</g>
<!-- mnist_training_iree__Net__forward&#45;&gt;mnist_training_iree__MLP_Layer2____init__ -->
<g id="edge10" class="edge">
<title>mnist_training_iree__Net__forward&#45;&gt;mnist_training_iree__MLP_Layer2____init__</title>
<path fill="none" stroke="#000000" d="M3181.5286,-129.3325C3218.8885,-124.1898 3259.4087,-119.439 3297,-116.7401 3435.9785,-106.7622 4412.6297,-125.1177 4551,-108.7401 4601.7214,-102.7367 4657.1678,-90.367 4702.7459,-78.5992"/>
<polygon fill="#000000" stroke="#000000" points="4703.8231,-81.9353 4712.6136,-76.0213 4702.0537,-75.1626 4703.8231,-81.9353"/>
</g>
<!-- mnist_training_iree__Net__forward&#45;&gt;mnist_training_iree__MLP_Layer3____init__ -->
<g id="edge13" class="edge">
<title>mnist_training_iree__Net__forward&#45;&gt;mnist_training_iree__MLP_Layer3____init__</title>
<path fill="none" stroke="#000000" d="M3181.1939,-129.3063C3218.645,-124.1462 3259.2944,-119.3932 3297,-116.7401 3422.5238,-107.9078 5437.0172,-123.3527 5562,-108.7401 5612.8322,-102.797 5668.4007,-90.3963 5714.0291,-78.5932"/>
<polygon fill="#000000" stroke="#000000" points="5715.1191,-81.9258 5723.9067,-76.0074 5713.3463,-75.154 5715.1191,-81.9258"/>
</g>
</g>
</svg>
